<svg width="33" height="21" fill="none" xmlns="http://www.w3.org/2000/svg"><g clip-path="url(#a)" filter="url(#b)"><path fill-rule="evenodd" clip-rule="evenodd" d="M4.688 8.5c0 .133.089.26.247.354.158.094.373.147.597.147h19.9l-5.31 3.146c-.159.094-.248.22-.248.354 0 .132.09.26.248.354.158.093.373.146.597.146.224 0 .44-.053.598-.146l6.75-4a.583.583 0 0 0 .183-.163.332.332 0 0 0 .064-.191.332.332 0 0 0-.064-.192.583.583 0 0 0-.183-.162l-6.75-4a1.015 1.015 0 0 0-.274-.109A1.365 1.365 0 0 0 20.718 4c-.224 0-.439.053-.597.147-.159.094-.248.22-.248.354 0 .132.09.26.248.354L25.432 8h-19.9c-.224 0-.439.052-.597.146-.158.094-.247.221-.247.354Z" fill="#fff"/></g><defs><clipPath id="a"><path fill="#fff" transform="rotate(90 15 15)" d="M0 0h16v27H0z"/></clipPath><filter id="b" x="-1" y="0" width="35" height="24" filterUnits="userSpaceOnUse" color-interpolation-filters="sRGB"><feFlood flood-opacity="0" result="BackgroundImageFix"/><feColorMatrix in="SourceAlpha" values="0 0 0 0 0 0 0 0 0 0 0 0 0 0 0 0 0 0 127 0" result="hardAlpha"/><feOffset dy="4"/><feGaussianBlur stdDeviation="2"/><feComposite in2="hardAlpha" operator="out"/><feColorMatrix values="0 0 0 0 0 0 0 0 0 0 0 0 0 0 0 0 0 0 0.25 0"/><feBlend in2="BackgroundImageFix" result="effect1_dropShadow_423_2413"/><feBlend in="SourceGraphic" in2="effect1_dropShadow_423_2413" result="shape"/></filter></defs></svg>