<svg width="234" height="60" fill="none" xmlns="http://www.w3.org/2000/svg"><path d="M233.125 18.422c.184 1.791-.413 3.64-1.757 5.529-1.346 1.89-3.433 3.806-6.197 5.72-5.528 3.826-13.725 7.612-23.994 11.144-20.534 7.061-49.298 13.086-81.423 16.397-32.125 3.31-61.514 3.278-83.056.552-10.773-1.363-19.57-3.398-25.763-6.017-3.096-1.309-5.53-2.76-7.232-4.335C2 45.837 1.039 44.149.855 42.357c-.185-1.791.412-3.64 1.757-5.528 1.346-1.89 3.432-3.807 6.197-5.72 5.528-3.827 13.725-7.613 23.994-11.145C53.336 12.905 82.1 6.879 114.226 3.568c32.125-3.31 61.513-3.278 83.055-.552 10.774 1.363 19.57 3.398 25.763 6.017 3.097 1.31 5.53 2.76 7.233 4.335 1.701 1.575 2.663 3.263 2.848 5.055Z" stroke="#fff" stroke-width=".5"/></svg>