<svg width="32" height="32" fill="none" xmlns="http://www.w3.org/2000/svg"><path fill-rule="evenodd" clip-rule="evenodd" d="M31.207 22.487a15.192 15.192 0 0 0-2.83-3.952 20.683 20.683 0 0 0-1.207-1.254l-.05-.049a24.7 24.7 0 0 1-.462-.46 39.627 39.627 0 0 0 4.013-6.983l.044-.098.031-.104c.145-.484.31-1.404-.276-2.236-.608-.859-1.58-1.014-2.232-1.014h-2.996a2.976 2.976 0 0 0-2.92 1.923 23.346 23.346 0 0 1-2.408 4.361v-3.51c0-.454-.043-1.214-.53-1.854-.58-.768-1.422-.92-2.006-.92h-4.755a2.417 2.417 0 0 0-2.466 2.243l-.004.06v.06c0 .647.256 1.124.461 1.424.092.135.19.257.252.335l.013.017c.067.083.111.137.155.199.117.157.284.402.332 1.034v1.964a26.381 26.381 0 0 1-2.335-5.056l-.01-.029-.011-.028c-.163-.425-.423-1.044-.944-1.516-.608-.553-1.328-.707-1.983-.707h-3.04c-.662 0-1.461.155-2.057.783-.585.619-.652 1.36-.652 1.752v.179l.037.173A25.906 25.906 0 0 0 5.44 19.917a13.535 13.535 0 0 0 10.524 6.256l.055.004h.056c.968 0 1.977-.084 2.736-.589 1.023-.683 1.104-1.73 1.104-2.252v-1.517c.263.213.588.498.987.882.482.483.866.902 1.196 1.267l.176.195c.256.285.508.566.737.797.288.29.644.608 1.09.844.483.255.991.37 1.53.37h3.041c.642 0 1.56-.151 2.207-.9.704-.817.65-1.818.43-2.537l-.04-.129-.06-.121Zm-7.626.141a34.805 34.805 0 0 0-1.276-1.352l-.004-.004c-1.81-1.744-2.654-2.047-3.251-2.047-.319 0-.67.035-.897.32a1.03 1.03 0 0 0-.196.464 3.27 3.27 0 0 0-.043.592v2.735c0 .34-.056.483-.213.587-.21.14-.656.253-1.615.253a11.534 11.534 0 0 1-9.003-5.403l-.01-.017-.014-.016a23.907 23.907 0 0 1-4.725-9.9c.005-.173.043-.279.104-.343.063-.066.216-.16.605-.16h3.04c.338 0 .514.075.64.188.142.131.267.351.416.743.747 2.195 1.755 4.248 2.711 5.756.477.755.947 1.383 1.37 1.827.213.221.42.405.618.536.19.125.408.225.632.225a.967.967 0 0 0 .387-.07.698.698 0 0 0 .333-.31c.137-.25.176-.62.176-1.104v-4.497c-.07-1.091-.4-1.706-.72-2.142a7.553 7.553 0 0 0-.2-.257l-.017-.021a3.556 3.556 0 0 1-.163-.214.519.519 0 0 1-.113-.285.417.417 0 0 1 .432-.376h4.793c.275 0 .367.067.413.13.067.086.123.266.123.645v6.037c0 .717.33 1.203.81 1.203.553 0 .951-.335 1.647-1.031l.012-.013.011-.012a25.347 25.347 0 0 0 3.787-6.296l.005-.016a.976.976 0 0 1 .987-.647h3.066c.416 0 .552.107.598.17.046.066.08.209 0 .489a37.628 37.628 0 0 1-4.039 6.933l-.01.016c-.154.236-.323.497-.347.796-.027.323.112.615.356.93.177.26.544.62.916.983l.034.035c.39.381.812.795 1.151 1.195l.01.009.009.01a13.192 13.192 0 0 1 2.486 3.449c.102.346.04.525-.04.617-.092.107-.298.207-.69.207H25.63a1.213 1.213 0 0 1-.596-.14 2.614 2.614 0 0 1-.605-.486c-.191-.19-.398-.421-.651-.702l-.196-.219h-.001Z" fill="#fff"/></svg>