<svg width="191" height="50" fill="none" xmlns="http://www.w3.org/2000/svg"><path d="M189.935 16.928c.345 3.349-.896 6.514-3.794 9.476-2.904 2.967-7.464 5.722-13.725 8.225-12.52 5.007-31.768 8.978-57.942 11.675-26.17 2.697-54.285 3.607-76.028 2.125-10.874-.74-20.14-2.08-26.77-4.085-3.317-1.004-5.958-2.17-7.809-3.5-1.85-1.33-2.885-2.806-3.052-4.427-.606-5.883 1.54-10.623 5.928-14.525 4.401-3.912 11.058-6.981 19.457-9.481 16.796-5 40.447-7.693 66.634-10.392 26.158-2.696 50.237-1.25 67.891 2.034 8.828 1.642 16.04 3.743 21.099 6.01 2.53 1.134 4.511 2.305 5.885 3.474 1.379 1.173 2.115 2.316 2.226 3.39Z" stroke="#fff" stroke-width=".5"/></svg>