<svg width="25" height="25" fill="none" xmlns="http://www.w3.org/2000/svg"><path d="M20.367 3.122c-.25.018-.497.077-.729.174h-.003c-.223.088-1.281.534-2.89 1.209l-5.768 2.429a16030.8 16030.8 0 0 0-8.206 3.458l.048-.02s-.28.093-.573.294a1.587 1.587 0 0 0-.458.443c-.144.21-.26.533-.216.867.07.564.436.902.698 1.089.266.189.519.277.519.277h.006l3.815 1.285c.171.55 1.162 3.809 1.4 4.56.141.448.278.729.45.943.082.11.179.2.295.274.06.035.125.063.192.083l-.039-.01c.012.004.021.013.03.016.031.009.052.012.092.018.604.183 1.09-.192 1.09-.192l.027-.022 2.252-2.05 3.775 2.895.086.037c.787.345 1.583.153 2.005-.186a2.04 2.04 0 0 0 .589-.778l.027-.07L21.798 5.2c.083-.369.104-.714.013-1.05a1.411 1.411 0 0 0-.61-.817 1.463 1.463 0 0 0-.834-.211Zm-.079 1.602c-.003.049.006.043-.016.138v.008l-2.89 14.79c-.012.02-.033.067-.09.113-.062.048-.11.079-.364-.022l-4.617-3.54-2.79 2.542.586-3.742 7.544-7.031c.311-.29.207-.35.207-.35.022-.355-.47-.104-.47-.104l-9.512 5.893-.003-.016-4.56-1.535v-.003l-.01-.002a.2.2 0 0 0 .022-.01l.025-.012.025-.009s4.07-1.716 8.21-3.458a4645.65 4645.65 0 0 0 5.764-2.43c.952-.4 1.905-.799 2.86-1.195.063-.025.033-.025.079-.025Z" fill="#342F2C"/></svg>