<svg width="24" height="25" fill="none" xmlns="http://www.w3.org/2000/svg"><path d="M17 2.083H7c-2.761 0-5 2.332-5 5.208v10.417c0 2.877 2.239 5.208 5 5.208h10c2.761 0 5-2.332 5-5.208V7.291c0-2.876-2.239-5.208-5-5.208Z" stroke="#fff" stroke-width="2" stroke-linecap="round" stroke-linejoin="round"/><path d="M17.5 6.77h.01M16 11.844a4.319 4.319 0 0 1-.406 2.53 4.076 4.076 0 0 1-1.753 1.803 3.86 3.86 0 0 1-2.433.392 3.947 3.947 0 0 1-2.193-1.167 4.23 4.23 0 0 1-1.121-2.284 4.32 4.32 0 0 1 .376-2.536 4.09 4.09 0 0 1 1.73-1.825 3.86 3.86 0 0 1 2.43-.423 3.944 3.944 0 0 1 2.241 1.175A4.233 4.233 0 0 1 16 11.843Z" stroke="#fff" stroke-width="2" stroke-linecap="round" stroke-linejoin="round"/></svg>