<svg width="11" height="16" fill="none" xmlns="http://www.w3.org/2000/svg"><path d="M5.5 3.6c.521 0 1.02.21 1.389.586a2.019 2.019 0 0 1 .426 2.18 2.003 2.003 0 0 1-.426.648A1.962 1.962 0 0 1 5.5 7.6c-.521 0-1.02-.21-1.389-.586A2.019 2.019 0 0 1 3.536 5.6c0-.53.207-1.04.575-1.414A1.947 1.947 0 0 1 5.5 3.6Zm0-3.6a5.45 5.45 0 0 1 3.89 1.64A5.652 5.652 0 0 1 11 5.6C11 9.8 5.5 16 5.5 16S0 9.8 0 5.6c0-1.485.58-2.91 1.61-3.96A5.45 5.45 0 0 1 5.5 0Zm0 1.6a3.893 3.893 0 0 0-2.778 1.172A4.037 4.037 0 0 0 1.572 5.6c0 .8 0 2.4 3.928 7.768C9.429 8 9.429 6.4 9.429 5.6c0-1.06-.414-2.078-1.151-2.828A3.893 3.893 0 0 0 5.5 1.6Z" fill="#fff"/></svg>