<svg width="17" height="17" fill="none" xmlns="http://www.w3.org/2000/svg"><path d="m14.875 10.28-3.127-1.402-.012-.006a1.324 1.324 0 0 0-1.336.172l-1.482 1.262c-.863-.468-1.755-1.353-2.224-2.205L7.96 6.596a1.328 1.328 0 0 0 .161-1.339l-1.4-3.132a1.332 1.332 0 0 0-1.38-.787 4.002 4.002 0 0 0-3.482 3.974c0 5.42 4.41 9.828 9.829 9.828a4.002 4.002 0 0 0 3.974-3.48 1.332 1.332 0 0 0-.787-1.38Zm-3.188 3.267a8.245 8.245 0 0 1-8.234-8.235 2.41 2.41 0 0 1 1.891-2.36l1.25 2.79-1.272 1.515a1.328 1.328 0 0 0-.142 1.381c.625 1.28 1.914 2.56 3.208 3.187a1.327 1.327 0 0 0 1.381-.152l1.49-1.267 2.789 1.25a2.41 2.41 0 0 1-2.36 1.89Z" fill="#fff"/></svg>