<svg width="25" height="25" fill="none" xmlns="http://www.w3.org/2000/svg"><path fill-rule="evenodd" clip-rule="evenodd" d="M24.38 17.567a11.87 11.87 0 0 0-2.212-3.087c-.3-.34-.615-.666-.943-.98l-.04-.038a19.082 19.082 0 0 1-.36-.36 30.96 30.96 0 0 0 3.136-5.454l.034-.078.024-.08c.114-.379.243-1.098-.215-1.748-.476-.67-1.235-.791-1.744-.791h-2.34a2.325 2.325 0 0 0-2.282 1.502 18.23 18.23 0 0 1-1.881 3.407V7.117c0-.354-.034-.948-.414-1.448-.454-.6-1.111-.718-1.568-.718H9.861a1.889 1.889 0 0 0-1.927 1.752l-.003.047v.046c0 .506.2.879.36 1.113.072.105.148.201.197.261l.01.014c.052.065.087.107.121.155.092.123.222.315.26.809v1.534a20.608 20.608 0 0 1-1.824-3.95l-.009-.023-.008-.022c-.127-.332-.33-.816-.738-1.184-.475-.433-1.037-.552-1.549-.552H2.376c-.517 0-1.141.12-1.607.611-.457.483-.51 1.063-.51 1.369v.14l.03.135a20.239 20.239 0 0 0 3.96 8.354 10.574 10.574 0 0 0 8.221 4.888l.043.003h.044c.756 0 1.544-.066 2.137-.46.8-.534.863-1.352.863-1.76v-1.186c.205.167.459.39.77.69.378.377.678.704.935.99l.137.152c.2.223.397.442.576.623.225.226.503.475.851.659.379.199.775.29 1.196.29h2.376c.501 0 1.22-.12 1.724-.705.55-.637.509-1.42.336-1.98l-.032-.102-.046-.095Zm-5.959.11c-.323-.36-.655-.712-.997-1.055l-.003-.004c-1.413-1.362-2.073-1.599-2.54-1.599-.248 0-.522.027-.7.25a.806.806 0 0 0-.153.363 2.558 2.558 0 0 0-.034.462v2.137c0 .265-.044.377-.166.458-.164.11-.513.198-1.262.198a9.01 9.01 0 0 1-7.033-4.22l-.009-.014-.01-.013a18.677 18.677 0 0 1-3.692-7.734c.004-.136.034-.218.082-.268.048-.052.168-.125.472-.125h2.375c.264 0 .401.058.5.147.11.102.209.274.325.58.584 1.715 1.371 3.319 2.118 4.497.373.59.74 1.08 1.071 1.427.166.173.327.317.482.419.15.098.319.176.494.176.092 0 .199-.01.302-.055a.544.544 0 0 0 .26-.242c.108-.196.138-.484.138-.862V9.086c-.055-.852-.313-1.332-.562-1.673a5.901 5.901 0 0 0-.157-.2l-.013-.018a2.808 2.808 0 0 1-.127-.166.406.406 0 0 1-.089-.223.326.326 0 0 1 .338-.294h3.744c.215 0 .287.052.323.101.052.068.096.208.096.504v4.717c0 .56.258.94.633.94.432 0 .743-.262 1.287-.806l.01-.01.008-.01A19.802 19.802 0 0 0 18.89 7.03l.004-.013a.763.763 0 0 1 .771-.505h2.396c.325 0 .431.083.466.132.037.052.063.164 0 .383a29.4 29.4 0 0 1-3.155 5.416l-.008.013c-.12.184-.252.388-.27.622-.022.252.087.48.277.726.139.204.425.484.716.768l.027.028c.304.298.634.62.899.933l.007.007.008.009a10.307 10.307 0 0 1 1.942 2.693c.08.271.031.41-.031.483-.072.083-.233.161-.54.161h-2.377a.948.948 0 0 1-.465-.11 2.044 2.044 0 0 1-.473-.378c-.15-.15-.31-.33-.509-.55l-.153-.17Z" fill="#fff"/></svg>