<svg width="24" height="25" fill="none" xmlns="http://www.w3.org/2000/svg"><path d="M19.05 5.114a9.803 9.803 0 0 0-3.212-2.25 9.476 9.476 0 0 0-3.797-.78c-5.46 0-9.91 4.634-9.91 10.322 0 1.823.46 3.594 1.32 5.156l-1.4 5.354L7.3 21.48a9.602 9.602 0 0 0 4.74 1.26c5.46 0 9.91-4.635 9.91-10.323 0-2.76-1.03-5.354-2.9-7.302ZM12.04 20.99c-1.48 0-2.93-.416-4.2-1.198l-.3-.187-3.12.854.83-3.167-.2-.323a8.875 8.875 0 0 1-1.26-4.562c0-4.73 3.7-8.583 8.24-8.583 2.2 0 4.27.895 5.82 2.52a8.555 8.555 0 0 1 1.79 2.785 8.835 8.835 0 0 1 .62 3.288c.02 4.73-3.68 8.573-8.22 8.573Zm4.52-6.416c-.25-.125-1.47-.75-1.69-.844-.23-.083-.39-.125-.56.125-.17.26-.64.844-.78 1.01-.14.177-.29.198-.54.063-.25-.125-1.05-.406-1.99-1.281-.74-.688-1.23-1.532-1.38-1.792-.14-.26-.02-.396.11-.531.11-.115.25-.302.37-.448.12-.146.17-.26.25-.427a.496.496 0 0 0-.02-.448c-.06-.125-.56-1.396-.76-1.917-.2-.5-.41-.437-.56-.448h-.48c-.17 0-.43.063-.66.323-.22.26-.86.885-.86 2.156 0 1.271.89 2.5 1.01 2.667.12.177 1.75 2.781 4.23 3.896.59.27 1.05.427 1.41.541.59.198 1.13.167 1.56.105.48-.073 1.47-.625 1.67-1.23.21-.604.21-1.114.14-1.229-.07-.114-.22-.166-.47-.291Z" fill="#fff"/></svg>