<svg xmlns="http://www.w3.org/2000/svg" viewBox="0 0 33 33" style="enable-background:new 0 0 33 33" xml:space="preserve"><path d="M24.192 24.505H8.809a.5.5 0 0 1-.5-.5v-8.122a4.12 4.12 0 0 0-4.116-4.115A3.195 3.195 0 0 0 1 14.96a2.456 2.456 0 0 0 2.454 2.454 1.865 1.865 0 0 0 1.863-1.863c0-.767-.624-1.391-1.391-1.391a.5.5 0 0 1 0-1 2.394 2.394 0 0 1 2.391 2.391 2.866 2.866 0 0 1-2.863 2.863A3.459 3.459 0 0 1 0 14.96a4.197 4.197 0 0 1 4.192-4.192 5.122 5.122 0 0 1 5.116 5.115v7.622h14.384v-7.622a5.121 5.121 0 0 1 5.115-5.115 4.197 4.197 0 0 1 4.192 4.192 3.459 3.459 0 0 1-3.454 3.454 2.866 2.866 0 0 1-2.862-2.863 2.393 2.393 0 0 1 2.39-2.391.5.5 0 0 1 0 1c-.767 0-1.39.624-1.39 1.391 0 1.027.835 1.863 1.862 1.863a2.456 2.456 0 0 0 2.454-2.454 3.195 3.195 0 0 0-3.192-3.192 4.119 4.119 0 0 0-4.115 4.115v8.122a.5.5 0 0 1-.5.5z"/><path d="M28.091 29.304H5.018a2.065 2.065 0 0 1-2.063-2.063v-9.326a.5.5 0 0 1 1 0v9.326c0 .586.478 1.063 1.063 1.063h23.073c.586 0 1.063-.478 1.063-1.063v-9.326a.5.5 0 0 1 1 0v9.326a2.065 2.065 0 0 1-2.063 2.063z"/><path d="M24.192 20.271H8.809a.5.5 0 0 1 0-1h15.384a.5.5 0 1 1-.001 1zM8.809 30.927a.5.5 0 0 1-.5-.5V29.2a.5.5 0 0 1 1 0v1.227a.5.5 0 0 1-.5.5zm15.383 0a.5.5 0 0 1-.5-.5V29.2a.5.5 0 0 1 1 0v1.227a.5.5 0 0 1-.5.5zm3.371-19.159a.5.5 0 0 1-.5-.5V8.009a4.941 4.941 0 0 0-4.936-4.936H10.98a4.941 4.941 0 0 0-4.936 4.936v3.259a.5.5 0 0 1-1 0V8.009a5.944 5.944 0 0 1 5.936-5.936h11.147a5.944 5.944 0 0 1 5.936 5.936v3.259a.5.5 0 0 1-.5.5z"/></svg>