<svg xmlns="http://www.w3.org/2000/svg" viewBox="0 0 512 512" xml:space="preserve"><path d="M487.8 430.7H24.3l7.5 7.5V335.8c0-20 6.7-39.8 19.1-55.5 13.6-17.1 32.8-28.3 54.1-32.5 7.4-1.4 15-1.4 22.5-1.4h262.2c14.6 0 28.8 3 41.9 9.6 18.9 9.6 34.2 26.1 42.2 45.7 5.3 13.1 6.6 26.5 6.6 40.5V438c0 9.7 15 9.7 15 0V335.6c0-21.1-6.4-42-18.4-59.3-20.3-29.4-53.5-45-88.8-45H148.4c-18.4 0-37.1-1.1-55 3.7-44.9 12-76.1 54.4-76.4 100.4-.2 34.2 0 68.4 0 102.5 0 4.1 3.4 7.5 7.5 7.5H488c9.5.3 9.5-14.7-.2-14.7z"/><path d="M26.2 375.9c30.9-7.1 62.8-17.8 94.8-12.6 18.5 3 35.9 8.9 55 9.5 18.9.5 36.8-4.4 55.1-8.4 15.1-3.4 31.1-3.4 46.4-.7 7.1 1.2 14.1 3.1 21.1 4.7 23.1 5.3 45.7 5.5 68.9.2 6.7-1.5 13.3-3.2 20-4.6 15.2-3.1 31.2-2.9 46.4 0 12.7 2.4 25.2 5.8 37.8 8.6 4.8 1.1 9.5 2.2 14.3 3.3 9.4 2.2 13.4-12.3 4-14.5-31.1-7.2-62.9-17.5-95.2-13.7-18.5 2.2-36.1 8.8-54.8 9.9-18.9 1.1-36.6-3.7-54.8-7.7-15.3-3.4-31.2-3.9-46.8-1.9-8.5 1.1-16.8 3.2-25.2 5.1-9.8 2.3-19.5 4.2-29.6 4.6-11.8.5-23.3-1-34.8-3.7-22.3-5.1-43.9-9.2-66.9-5.8-14 2-27.8 5.9-41.5 9-6 1.4-12 2.8-18 4.1-9.6 2.4-5.6 16.8 3.8 14.6zM48.7 281V142c0-37.8 37-60.7 71.6-60.7H352c13.9 0 27.8-.1 41.7 0 21.8.2 44.7 9.6 58.2 27.2 8.3 10.8 11.4 23.1 11.4 36.5v136c0 9.7 15 9.7 15 0V142c0-44.8-41.4-74-83.1-75.6-14.1-.6-28.3 0-42.4 0H120.4c-41.4 0-83.2 27.1-86.6 70.9-.6 7.2-.1 14.6-.1 21.8v122c0 9.6 15 9.6 15-.1z"/><path d="M229.9 231.6H124.3c-3.4 0-6.1-1.4-6.1-5.2v-53c0-4.4 4-4.7 7.3-4.7h99.4c3.8 0 9.3-.8 9.6 4.7.3 5.5 0 11.1 0 16.6v28.1c0 4.1 1.8 13.1-4.6 13.5-9.6.5-9.7 15.5 0 15 11-.6 19.7-8.8 19.7-20v-53.2c0-10.7-8.9-19.8-19.7-19.8h-94.7c-11.9 0-25.2-1-30.6 12.6-1.9 4.8-1.3 10.2-1.3 15.2v42.8c0 8.2 2.6 15 9.7 19.7 6.1 4 15.9 2.7 22.9 2.7h94c9.7 0 9.7-15 0-15zm159.2 0H283.5c-3.4 0-6.1-1.4-6.1-5.2v-53c0-4.4 4-4.7 7.3-4.7h99.4c3.8 0 9.3-.8 9.6 4.7.3 5.5 0 11.1 0 16.6v28.1c.1 4.1 1.8 13.1-4.6 13.5-9.6.5-9.7 15.5 0 15 11-.6 19.7-8.8 19.7-20v-53.2c0-10.7-8.9-19.8-19.7-19.8h-94.7c-11.9 0-25.2-1-30.6 12.6-1.9 4.8-1.3 10.2-1.3 15.2v42.8c0 8.2 2.6 15 9.7 19.7 6.1 4 15.9 2.7 22.9 2.7h94c9.7 0 9.7-15 0-15z"/></svg>