<svg baseProfile="tiny" xmlns="http://www.w3.org/2000/svg" width="24" height="24" xml:space="preserve"><path d="m6.997 2.75.917 9.308a.4.4 0 0 0 .398.361h7.334a.4.4 0 0 0 .398-.361l.899-9.227c.015-.049.141-.491-.215-.976-.602-.82-2.199-1.237-4.75-1.237s-4.147.417-4.749 1.237c-.343.468-.239.897-.232.897V2.75zm.9-.451c.217-.265 1.047-.88 4.082-.88 3.034 0 3.865.615 4.081.879.139.17.118.296.104.374l-.88 8.946H8.675l-.893-9.01c-.003-.013-.023-.139.115-.309zm8.641 11.319H7.42c-1.369 0-2.077 2.396-2.205 2.875a.401.401 0 0 0-.014.104c0 .708.585 1.284 1.303 1.284h5.075v2.911c-2.304.073-4.622.834-4.622 2.189 0 .221.18.4.4.4h9.187a.4.4 0 0 0 .37-.552c-.164-1.246-2.344-1.944-4.534-2.027v-2.921h5.074c.719 0 1.304-.576 1.295-1.365-.061-.297-.645-2.898-2.211-2.898zm-8.553 8.963c.531-.491 1.962-.995 3.957-.995 1.993 0 3.424.504 3.955.995H7.985zm9.469-5.501H6.504a.495.495 0 0 1-.5-.438c.257-.918.867-2.224 1.416-2.224h9.118c.723 0 1.273 1.521 1.419 2.178a.494.494 0 0 1-.503.484zm1.525-10.462a.4.4 0 0 0-.4.4v4.973a.4.4 0 0 0 .8 0V7.019a.4.4 0 0 0-.4-.401zM5.421 11.991V7.019a.4.4 0 0 0-.8 0v4.973a.4.4 0 0 0 .8-.001z"/></svg>