<svg xmlns="http://www.w3.org/2000/svg" viewBox="0 0 63 63" style="enable-background:new 0 0 63 63" xml:space="preserve"><path style="fill:#ff917b" d="M19 29.249h29v-3.082c0-1.101.402-1.922-.697-1.922h-25c-1.101 0-3.303.821-3.303 1.922v3.082z"/><path style="fill:#99746a" d="M63 17.24h-.697c-1.658 0-4.303 1.264-4.303 2.923v13.088h-7.697c-1.658 0-4.303 1.264-4.303 2.923v2.081h17V17.24zm-58 0h3.303c1.656 0 1.697 1.264 1.697 2.923v13.088h10.303c1.656 0 1.697 1.264 1.697 2.923v2.081H5V17.24z"/><path d="M44.5 28.248h-29c-.828 0-1.5-.673-1.5-1.501v-2.582c0-2.02 2.424-3.923 4.303-3.923h25c1.23 0 2.697.68 2.697 3.923v2.582c0 .828-.672 1.501-1.5 1.501zm-27.504-3.002H43v-1.081c0-.461-.024-.746-.053-.921H18.303c-.375.017-1.209.648-1.31.992l.003 1.01z"/><path d="M38.448 49.356c-.468 0-.928-.219-1.221-.628L22.665 28.327a1.5 1.5 0 1 1 2.441-1.745l14.562 20.4a1.503 1.503 0 0 1-1.22 2.374z"/><path d="M23.156 49.356a1.5 1.5 0 0 1-1.219-2.374l14.561-20.4a1.501 1.501 0 1 1 2.441 1.745L24.378 48.728a1.5 1.5 0 0 1-1.222.628zM59.5 37.254h-17a1.5 1.5 0 0 1-1.5-1.501v-1.581c0-2.606 2.965-4.923 5.303-4.923H53V18.161c0-2.606 2.965-4.924 5.303-4.924H59.5c.828 0 1.5.673 1.5 1.501v21.015a1.5 1.5 0 0 1-1.5 1.501zM44 34.252h14V16.278c-.883.205-2 1.208-2 1.883V30.75c0 .828-.672 1.501-1.5 1.501h-8.197c-.905 0-2.303 1.166-2.303 1.921v.08z"/><path d="M59.5 49.763c-.828 0-1.5-.673-1.5-1.501V36.253c0-.828.672-1.501 1.5-1.501s1.5.673 1.5 1.501v12.009c0 .828-.672 1.501-1.5 1.501zm-15 0c-.828 0-1.5-.673-1.5-1.501V36.253c0-.828.672-1.501 1.5-1.501s1.5.673 1.5 1.501v12.009c0 .828-.672 1.501-1.5 1.501zm-26-12.509h-17A1.5 1.5 0 0 1 0 35.753V14.738c0-.828.672-1.501 1.5-1.501h2.803C6.549 13.237 8 15.17 8 18.161v11.088h8.303c2.246 0 3.697 1.932 3.697 4.923v1.581a1.5 1.5 0 0 1-1.5 1.501zM3 34.252h14v-.08c0-.535-.125-1.921-.697-1.921H6.5c-.828 0-1.5-.673-1.5-1.501V18.161c0-.535-.125-1.921-.697-1.921H3v18.012z"/><path d="M1.5 49.763c-.828 0-1.5-.673-1.5-1.501V36.253c0-.828.672-1.501 1.5-1.501s1.5.673 1.5 1.501v12.009c0 .828-.672 1.501-1.5 1.501zm15 0c-.828 0-1.5-.673-1.5-1.501V36.253c0-.828.672-1.501 1.5-1.501s1.5.673 1.5 1.501v12.009c0 .828-.672 1.501-1.5 1.501zm4.95-28.52h-.049l-.058-.001C19.339 21.199 18 19.972 18 18.161V16.24c0-.829.672-1.502 1.5-1.502s1.5.673 1.5 1.502v1.921c-.027.01.078.076.426.08.389-.004.586-.105.617-.132L22 16.24c0-.829.672-1.502 1.5-1.502s1.5.673 1.5 1.502v1.921c0 1.784-1.431 3.082-3.493 3.082h-.057zm19.036 0a.024.024 0 0 0-.012 0h-.015C38.389 21.232 37 19.996 37 18.161V16.24c0-.829.672-1.502 1.5-1.502s1.5.673 1.5 1.502v1.921c-.012.009.155.079.48.08.35-.001.53-.08.565-.108L41 16.24c0-.829.672-1.502 1.5-1.502s1.5.673 1.5 1.502v1.921c0 1.835-1.405 3.071-3.499 3.082h-.015z"/></svg>