<svg style="enable-background:new 0 0 512 512" viewBox="0 0 512 512" xml:space="preserve" xmlns="http://www.w3.org/2000/svg" xmlns:xlink="http://www.w3.org/1999/xlink"><defs><circle cx="255.997" cy="255.108" id="a" r="197.391"/></defs><use style="overflow:visible;fill:#eee" xlink:href="#a"/><clipPath id="b"><use style="overflow:visible" xlink:href="#a"/></clipPath><path style="clip-path:url(#b);fill:#424242" d="m294.403 26 23.734 74.068L256 145.724l-62.138-45.911L217.597 26zM49.955 149.063l77.5-.189 24.472 73.03-62.417 45.311-62.899-44.98zm435.605 74.43-63.317 44.69-61.995-45.705 25.045-72.95 77.323.666zM359.993 462.855l-62.436-45.913 23.727-73.275 77.127.662 23.847 73.557zM89.736 415.144l25.165-73.301 77.017.756 22.409 73.802-63.075 44.732z"/><path style="fill:#424242" d="m217.089 316-24.048-74.515L256 195.491l62.958 46.119L294.91 316z"/><path d="M256 70c49.683 0 96.391 19.347 131.522 54.478S442 206.317 442 256s-19.347 96.391-54.478 131.522S305.683 442 256 442s-96.391-19.347-131.522-54.478S70 305.683 70 256s19.347-96.391 54.478-131.522S206.317 70 256 70m0-14C145.543 56 56 145.543 56 256s89.543 200 200 200 200-89.543 200-200S366.457 56 256 56z" style="fill:#424242"/><path style="fill:none;stroke:#424242;stroke-width:5;stroke-miterlimit:10" d="m291.91 312.407 31.374 35.26m-135.374 0 31.374-35.26m92.924-67.686 56.578-26.435m-169 26.435-56.578-26.435M256.5 204v-69m-53.264 282.5-85.374-62.988-32.61-100.843 32.61-98.752L203.236 94.5h105.528l85.374 60.177 32.61 99.437-32.61 100.861-85.374 62.525z"/></svg>