<svg xmlns="http://www.w3.org/2000/svg" viewBox="0 0 512 512" xml:space="preserve"><path d="M481.5 219.2H30.4l7.5 7.5v-40.4l-7.5 7.5h451.1l-7.5-7.5v40.4c0 9.7 15 9.7 15 0v-40.4c0-4.1-3.4-7.5-7.5-7.5H30.4c-4.1 0-7.5 3.4-7.5 7.5v40.4c0 4.1 3.4 7.5 7.5 7.5h451.1c9.7 0 9.7-15 0-15z"/><path d="M436.5 193.9h45l-7.5-7.5v291.7l7.5-7.5h-45l7.5 7.5V226.8c0-9.7-15-9.7-15 0v251.3c0 4.1 3.4 7.5 7.5 7.5h45c4.1 0 7.5-3.4 7.5-7.5V186.5c0-4.1-3.4-7.5-7.5-7.5h-45c-9.6-.1-9.6 14.9 0 14.9zM193.9 282H30.4l7.5 7.5v-62.7l-7.5 7.5h163.5l-7.5-7.5v62.7c0 9.7 15 9.7 15 0v-62.7c0-4.1-3.4-7.5-7.5-7.5H30.4c-4.1 0-7.5 3.4-7.5 7.5v62.7c0 4.1 3.4 7.5 7.5 7.5h163.5c9.7 0 9.7-15 0-15z"/><path d="M193.9 345H30.4l7.5 7.5v-62.7l-7.5 7.5h163.5l-7.5-7.5v62.7c0 9.7 15 9.7 15 0v-62.7c0-4.1-3.4-7.5-7.5-7.5H30.4c-4.1 0-7.5 3.4-7.5 7.5v62.7c0 4.1 3.4 7.5 7.5 7.5h163.5c9.7 0 9.7-15 0-15z"/><path d="M193.9 407.8H30.4l7.5 7.5v-62.7l-7.5 7.5h163.5l-7.5-7.5v62.7c0 9.7 15 9.7 15 0v-62.7c0-4.1-3.4-7.5-7.5-7.5H30.4c-4.1 0-7.5 3.4-7.5 7.5v62.7c0 4.1 3.4 7.5 7.5 7.5h163.5c9.7 0 9.7-15 0-15z"/><path d="M193.9 470.5H30.4l7.5 7.5v-62.7l-7.5 7.5h163.5l-7.5-7.5V478c0 9.7 15 9.7 15 0v-62.7c0-4.1-3.4-7.5-7.5-7.5H30.4c-4.1 0-7.5 3.4-7.5 7.5V478c0 4.1 3.4 7.5 7.5 7.5h163.5c9.7 0 9.7-15 0-15zM95 265.6h34.3c9.7 0 9.7-15 0-15H95c-9.6 0-9.6 15 0 15zm0 63.1h34.3c9.7 0 9.7-15 0-15H95c-9.6 0-9.6 15 0 15zm0 62.7h34.3c9.7 0 9.7-15 0-15H95c-9.6 0-9.6 15 0 15z"/><path d="M95 454.2h34.3c9.7 0 9.7-15 0-15H95c-9.6 0-9.6 15 0 15zM70.3 186.4v-112c0-7.8-1.5-17.7 2.6-24.7 8.9-15.4 31.9-7 31.9 9.6 0 9.7 15 9.7 15 0 0-25.1-27.2-40.5-48.9-28.1-9.6 5.5-15.6 16.7-15.6 27.6v127.6c0 9.6 15 9.6 15 0z"/><path d="M135.7 96.1H88.8l7.5 7.5V84c0-9.4 6.2-17.1 16-17.3 19.6-.6 16 24.3 16 36.9 0 9.7 15 9.7 15 0 0-7.4.2-14.9 0-22.3-.5-16.7-14.8-29.1-30.9-29.6-15.8-.5-29.5 12.8-30.8 28.2-.7 7.8-.2 15.8-.2 23.7 0 4.1 3.4 7.5 7.5 7.5h46.9c9.5 0 9.5-15-.1-15z"/></svg>