<svg width="312" height="85" fill="none" xmlns="http://www.w3.org/2000/svg"><path d="M311.479 34.06c.295 5.53-3.68 11.091-11.285 16.41-7.592 5.31-18.736 10.33-32.622 14.79-27.768 8.92-66.444 15.584-109.444 17.872-43.001 2.289-82.166-.233-110.724-6.155-14.28-2.962-25.895-6.77-34.007-11.245C5.27 61.251.728 56.143.434 50.612c-.294-5.53 3.68-11.091 11.285-16.41 7.592-5.31 18.736-10.33 32.622-14.79 27.768-8.92 66.444-15.584 109.445-17.872 43-2.289 82.165.233 110.723 6.155 14.281 2.962 25.895 6.77 34.008 11.245 8.126 4.481 12.668 9.589 12.962 15.12Z" stroke="#0E0E0E" stroke-width=".5"/></svg>